# xmcd CD database file
#
# Track frame offsets:
#	150
#	17144
#	36300
#	52966
#	70538
#	87050
#	101008
#	117057
#	130478
#	147316
#	163965
#	176912
#	192738
#	209042
#	226056
#	241561
#	259357
#	275209
#	291450
#
# Disc length: 4087 seconds
#
# Revision: 0
# Processed by: cddbd v1.5.2PL0 Copyright (c) Steve Scherf et al.
# Submitted via: CDex 1.70beta2
#
DISCID=280ff513
DTITLE=Various Artist - NU COUNTRY TRAXX 171
DYEAR=2013
DGENRE=Country
TTITLE0=Bourbon In Kentucky - Dierks Bentley
TTITLE1=When I See This Bar - Kenny Chesney
TTITLE2=RED - Taylor Swift
TTITLE3=Night Train - Jason Aldean
TTITLE4=Drunk Last Night - Eli Young Band
TTITLE5=There's The Sun - Kix Brooks
TTITLE6=Drinks After Work - Toby Keith
TTITLE7=Everything I Shouldn't Be Thinking About - Thompson Square
TTITLE8=Granddaddy's Gun - Aaron Lewis
TTITLE9=All Kinds Of Kinds - Miranda Lambert
TTITLE10=Barefoot And Buckwild - Lauren Alaina 
TTITLE11=Girl Ridin' Shotgun - Joe Diffie ft. D-Thrash Of The Jawga Boyz
TTITLE12=Wasting All These Tears - Cassadee Pope
TTITLE13=I Just Can't Help Believing - BJ Thomas and Vince Gill
TTITLE14=Sounds Like A Love Song - Hayley
TTITLE15=Suitcase - Gwen Sebastian
TTITLE16=Suntan City - Aaron Pritchett
TTITLE17=(Make It) A Night To Remember - Charlie Major
TTITLE18=Money Thang - Elvis Carden
EXTD=YEAR: 2013
EXTT0=
EXTT1=
EXTT2=
EXTT3=
EXTT4=
EXTT5=
EXTT6=
EXTT7=
EXTT8=
EXTT9=
EXTT10=
EXTT11=
EXTT12=
EXTT13=
EXTT14=
EXTT15=
EXTT16=
EXTT17=
EXTT18=
PLAYORDER=
